<svg version="1.2" xmlns="http://www.w3.org/2000/svg" viewBox="0 0 1091 260" width="1091" height="260">
	<title>Logo</title>
	<style>
		.s0 { fill: #27272a } 
		.s1 { fill: #f5f5f5 } 
	</style>
	<path id="форма 1" class="s0" d="m0 50c0-27.6 22.4-50 50-50h160c27.6 0 50 22.4 50 50v160c0 27.6-22.4 50-50 50h-160c-27.6 0-50-22.4-50-50z"/>
	<path id="A" class="s1" aria-label="A"  d="m155 203l-7.2-34.3h-36.8l-7.2 34.3h-33.7l29.2-120.7h-15.4v-27.6h68.8l36 148.3zm-38.1-61.9h25l-9.1-43.4-1.5-13.3q0-0.9-0.6-1.3-0.7-0.6-1.3-0.6-1.5 0-1.9 1.9l-1.5 13.3z"/>
	<path id="Akhtem" class="s1" aria-label="Akhtem"  d="m386.4 91.8l-34.5 106.2h-31.2l47.5-137.6h37.5l47.5 137.6h-31.2l-34.5-106.2zm-36.5 74.8v-22.7h73.7v22.7zm164.1-19.9l-19 21.6 0.1-34.4h4.2l33-39.1h32.9l-44.4 51.9zm-16.3 51.3h-28.6v-137.6h28.6zm69.4 0h-33.5l-30.4-45 19.1-20.2zm40.7-59.7v59.7h-28.7v-137.7h27.9v52.6h1.2q3.5-9.1 11.3-14.3 7.8-5.2 19.5-5.2 10.8 0 18.8 4.7 8 4.6 12.5 13.4 4.5 8.6 4.4 20.7v65.8h-28.6v-60.7q0.1-9.5-4.9-14.8-4.8-5.3-13.5-5.3-5.9 0-10.4 2.5-4.4 2.4-7 7.2-2.5 4.7-2.5 11.4zm82.2-43.6h62.2v21.5h-62.2zm14.2 75.3v-100h28.6v96.2q0 4 1.2 6.2 1.2 2.2 3.4 3.1 2.2 0.8 5.1 0.8 2 0 4-0.3 2-0.4 3.1-0.6l4.5 21.3q-2.2 0.7-6.1 1.6-3.9 0.9-9.4 1.1-10.4 0.4-18.2-2.8-7.7-3.1-12-9.8-4.3-6.6-4.2-16.8zm112.6 30q-15.9 0-27.4-6.5-11.4-6.5-17.6-18.4-6.2-11.9-6.2-28.3 0-15.9 6.2-27.9 6.2-12.1 17.4-18.8 11.3-6.7 26.5-6.7 10.2 0 19 3.3 8.9 3.2 15.4 9.7 6.7 6.5 10.4 16.4 3.7 9.8 3.7 23v7.9h-87.2v-17.8h60.2q0-6.2-2.7-10.9-2.6-4.8-7.4-7.5-4.7-2.7-11-2.7-6.5 0-11.5 3-5 2.9-7.8 8-2.8 5-2.9 11.1v16.8q0 7.7 2.8 13.3 2.9 5.6 8.1 8.6 5.3 3 12.5 3 4.7 0 8.7-1.3 4-1.4 6.8-4.1 2.8-2.7 4.3-6.6l26.5 1.8q-2 9.5-8.3 16.7-6.2 7-16 11-9.7 3.9-22.5 3.9zm94.7-2h-28.6v-103.3h27.3v18.2h1.2q3.2-9 10.7-14.3 7.5-5.2 18-5.2 10.7 0 18.1 5.3 7.5 5.2 10 14.2h1q3.2-8.8 11.5-14.1 8.3-5.4 19.7-5.4 14.4 0 23.4 9.2 9.1 9.1 9.1 25.9v69.5h-28.6v-63.8q0-8.6-4.6-12.9-4.5-4.3-11.4-4.3-7.8 0-12.1 5-4.4 4.9-4.4 12.9v63.1h-27.8v-64.4q0-7.6-4.3-12.1-4.3-4.5-11.4-4.5-4.8 0-8.6 2.4-3.8 2.3-6 6.7-2.2 4.2-2.2 9.9z"/>
</svg>