<svg version="1.2" xmlns="http://www.w3.org/2000/svg" viewBox="0 0 790 260" width="790" height="260">
	<title>Новый проект</title>
	<style>
		.s0 { fill: #27272a } 
		.s1 { fill: #f5f5f5 } 
	</style>
	<path id="форма 1" class="s0" d="m0 50c0-27.6 22.4-50 50-50h160c27.6 0 50 22.4 50 50v160c0 27.6-22.4 50-50 50h-160c-27.6 0-50-22.4-50-50z"/>
	<path id="A" class="s1" aria-label="A"  d="m155.4 204l-7.1-34.1h-36.6l-7.1 34.1h-33.5l29.1-119.8h-15.4v-27.3h68.3l35.8 147.1zm-37.9-61.4h24.8l-9-43.1-1.5-13.2q0-0.8-0.6-1.3-0.6-0.6-1.3-0.6-1.5 0-1.9 1.9l-1.4 13.2z"/>
	<path id="Aliiev" class="s1" aria-label="Aliiev"  d="m382.1 98.5l-31.8 97.5h-28.6l43.6-126.4h34.5l43.6 126.4h-28.7l-31.6-97.5zm-33.6 68.7v-20.9h67.7v20.9zm109.5-97.6h26.3v126.4h-26.3zm73.6 126.4h-26.3v-94.8h26.3zm-13.1-107q-5.8 0-10-3.9-4.2-4-4.2-9.5 0-5.4 4.2-9.3 4.2-4 10-4 5.9 0 10 4 4.2 3.9 4.2 9.3 0 5.5-4.2 9.5-4.1 3.9-10 3.9zm60.4 107h-26.3v-94.8h26.3zm-13.1-107.1q-5.8 0-10-3.9-4.2-3.9-4.2-9.4 0-5.4 4.2-9.3 4.2-4 10-4 5.9 0 10 4 4.2 3.9 4.2 9.3 0 5.5-4.2 9.4-4.1 3.9-10 3.9zm77.3 108.9q-14.6 0-25.2-5.9-10.5-6-16.1-16.9-5.7-11-5.7-26 0-14.6 5.7-25.7 5.6-11 16-17.2 10.3-6.2 24.3-6.2 9.4 0 17.5 3 8.1 3 14.2 9 6.1 6 9.5 15.1 3.4 9 3.4 21.1v7.2h-80.1v-16.3h55.3q0-5.7-2.5-10.1-2.4-4.4-6.8-6.8-4.3-2.6-10.1-2.6-6 0-10.6 2.8-4.6 2.7-7.2 7.4-2.6 4.5-2.6 10.2v15.5q0 7 2.6 12.1 2.6 5.1 7.4 7.9 4.9 2.8 11.5 2.8 4.4 0 8-1.2 3.6-1.3 6.2-3.7 2.6-2.5 4-6.1l24.3 1.6q-1.8 8.8-7.6 15.3-5.7 6.5-14.7 10.1-8.9 3.6-20.7 3.6zm118.6-96.7h27.9l-33.2 94.9h-29.6l-33.2-94.9h27.8l19.7 67.9h1z"/>
</svg>