<?xml version="1.0" standalone="no"?>
<!DOCTYPE svg PUBLIC "-//W3C//DTD SVG 20010904//EN"
 "http://www.w3.org/TR/2001/REC-SVG-20010904/DTD/svg10.dtd">
<svg version="1.0" xmlns="http://www.w3.org/2000/svg"
 width="700.000000pt" height="700.000000pt" viewBox="0 0 700.000000 700.000000"
 preserveAspectRatio="xMidYMid meet">
<metadata>
Created by potrace 1.14, written by Peter Selinger 2001-2017
</metadata>
<g transform="translate(0.000000,700.000000) scale(0.100000,-0.100000)"
fill="#000000" stroke="none">
<path d="M1205 6993 c-163 -21 -328 -69 -450 -130 -383 -192 -646 -537 -732
-960 -17 -83 -18 -214 -18 -2403 0 -2189 1 -2320 18 -2403 112 -551 523 -962
1074 -1074 83 -17 218 -18 2403 -18 2189 0 2320 1 2403 18 551 112 962 523
1074 1074 17 83 18 214 18 2403 0 2189 -1 2320 -18 2403 -110 541 -505 945
-1045 1069 l-97 22 -2300 2 c-1265 1 -2313 -1 -2330 -3z m2990 -1385 c46 -194
1017 -4187 1020 -4196 4 -10 -93 -12 -477 -10 l-482 3 -102 485 -101 485 -525
3 c-415 2 -527 0 -530 -10 -3 -7 -49 -228 -104 -490 l-99 -478 -482 0 -481 0
14 53 c22 84 812 3350 816 3372 3 19 -3 20 -214 23 l-218 2 0 390 0 390 980 0
980 0 5 -22z"/>
<path d="M3490 4820 c-11 -11 -20 -24 -20 -30 0 -5 -9 -92 -21 -192 -15 -136
-52 -337 -145 -783 -69 -330 -128 -610 -131 -622 l-5 -23 356 0 c196 0 356 2
356 4 0 2 -58 280 -129 618 -109 514 -133 647 -151 814 -18 174 -23 201 -41
217 -27 22 -44 22 -69 -3z"/>
</g>
</svg>
