<svg xmlns="http://www.w3.org/2000/svg" version="1.1" xmlns:xlink="http://www.w3.org/1999/xlink" xmlns:svgjs="http://svgjs.dev/svgjs" viewBox="0 0 800 800"><defs><linearGradient x1="50%" y1="0%" x2="50%" y2="100%" id="ccchaos-grad"><stop stop-color="#0d9488" stop-opacity="1" offset="0%"></stop><stop stop-color="#059669" stop-opacity="1" offset="100%"></stop></linearGradient></defs><g stroke-width="2.5" stroke="url(#ccchaos-grad)" fill="none" stroke-linecap="round"><path d="M392.89 97.26C402.73 96.35 412.75 96.4 422.92 97.38 433.13 98.83 443.52 101.17 454.1 104.34 464.73 107.88 475.57 112.15 486.59 117.06 497.67 122.18 508.93 127.81 520.31 133.87 531.7 139.95 543.14 146.34 554.53 152.96 565.79 159.44 576.84 166.08 587.5 172.84 597.78 179.34 607.44 185.93 616.27 192.57 624.39 198.94 631.44 205.36 637.22 211.86 642.06 218.09 645.5 224.43 647.48 230.88 648.58 237.12 648.37 243.53 646.96 250.12 645.2 256.55 642.75 263.22 639.95 270.14 637.71 276.95 635.84 284.05 634.72 291.45 635.15 298.78 636.93 306.43 640.25 314.4 645.56 322.34 652.45 330.61 660.73 339.21 670.41 347.79 680.76 356.71 691.2 365.97 701.5 375.22 710.7 384.81 718.14 394.74 723.73 404.67 726.55 414.72 726.5 424.87 724.08 435.03 718.96 445.3 711.5 455.66 702.48 466.04 692.01 476.52 680.65 487.07 669.16 497.66 657.75 508.31 646.87 518.98 637.06 529.67 628.33 540.36 620.82 550.99 614.85 561.58 610.08 572.04 606.39 582.29 603.99 592.4 602.27 602.2 600.96 611.57 600.33 620.65 599.62 629.18 598.6 637.03 597.65 644.42 596.03 651.01 593.62 656.67 589.04 663.78 574.53 671.88 564.72 672.83 557.51 672.67 549.57 671.61 541.03 669.76 532.22 667.8 522.93 665.33 513.28 662.51 503.49 660.08 493.44 657.65 483.2 655.41 472.92 654.04 462.52 653.15 452.06 652.87 441.6 653.74 431.1 655.34 420.6 657.64 410.09 661.05 399.83 664.9 389.8 669.01 379.74 673.75 369.89 678.35 360.24 682.61 350.53 686.89 340.98 690.43 331.56 693.07 322.05 695.23 312.63 696.23 303.3 696.02 293.85 695.04 284.44 692.76 275.1 689.24 265.63 684.92 256.21 679.43 246.88 672.89 237.47 665.7 228.19 657.64 219.08 648.85 210 639.66 201.19 629.93 192.72 619.81 184.43 609.52 176.6 599 169.3 588.34 162.32 577.69 155.97 567 150.31 556.34 145.04 545.8 140.5 535.31 136.69 524.92 133.23 514.67 130.43 504.5 128.29 494.44 126.3 484.49 124.82 474.6 123.78 464.78 122.64 455.04 121.77 445.32 121.13 435.63 120.15 425.98 119.27 416.32 118.48 406.65 117.26 397.01 116.12 387.34 115.1 377.66 113.75 367.99 112.69 358.53 111.99 349.31 111.23 340.09 111.01 331.12 111.41 322.41 112.03 313.72 113.4 305.31 115.55 297.21 118.09 289.14 121.46 281.4 125.61 274.01 130.15 266.65 135.42 259.65 141.33 253.03 147.5 246.42 154.18 240.18 161.27 234.32 168.4 228.44 175.81 222.91 183.4 217.72 190.83 212.44 198.36 207.46 205.94 202.74 213.23 197.86 220.55 193.18 227.87 188.69 234.88 183.93 241.94 179.29 249.05 174.75 255.89 169.88 262.86 165.06 269.97 160.29 276.89 155.18 284.02 150.1 291.38 145.11 298.62 139.82 306.15 134.66 313.98 129.69 321.74 124.56 329.84 119.73 338.27 115.29 346.65 110.89 355.4 107.02 364.5 103.78 373.59 100.8 383.04 98.6 392.88 97.26" stroke-dasharray="0 0" transform="rotate(0, 400, 400)" opacity="0.69"></path><path d="M401.14 111.26C410.67 110.36 420.38 110.36 430.25 111.24 440.15 112.54 450.21 114.71 460.43 117.66 470.69 120.96 481.09 124.98 491.6 129.62 502.13 134.47 512.73 139.84 523.32 145.65 533.86 151.51 544.29 157.7 554.52 164.15 564.54 170.51 574.18 177.05 583.3 183.72 591.99 190.21 599.95 196.79 607.02 203.44 613.42 209.85 618.77 216.33 622.93 222.87 626.32 229.18 628.5 235.57 629.45 242.06 629.8 248.35 629.14 254.77 627.63 261.34 626.04 267.76 624.07 274.37 622.01 281.18 620.69 287.88 619.87 294.83 619.86 302.03 621.33 309.15 624.05 316.56 628.12 324.26 633.92 331.91 641.02 339.87 649.24 348.13 658.58 356.37 668.37 364.93 678.13 373.81 687.68 382.68 696.18 391.88 703.06 401.41 708.31 410.94 711.09 420.59 711.3 430.33 709.41 440.07 705.07 449.92 698.57 459.84 690.59 469.78 681.15 479.8 670.73 489.85 660 499.91 649.11 509.99 638.46 520.06 628.57 530.11 619.46 540.09 611.31 549.96 604.43 559.75 598.6 569.34 593.75 578.67 590.11 587.81 587.2 596.59 584.83 604.91 583.23 612.92 581.78 620.35 580.27 627.1 578.21 636.19 571.44 649.42 566.19 653.33 559.71 655.56 542.43 655.06 531.85 652.76 524.35 650.99 516.3 648.81 507.8 646.38 499.17 644.35 490.16 642.36 480.87 640.55 471.51 639.54 461.93 638.96 452.18 638.89 442.41 639.86 432.5 641.45 422.48 643.63 412.45 646.79 402.56 650.33 392.81 654.08 383.05 658.41 373.41 662.62 363.89 666.53 354.33 670.52 344.86 673.87 335.48 676.46 326.04 678.68 316.65 679.89 307.33 680.04 297.94 679.56 288.59 677.92 279.31 675.15 269.97 671.69 260.71 667.14 251.58 661.59 242.44 655.45 233.47 648.44 224.74 640.69 216.11 632.52 207.8 623.77 199.88 614.56 192.19 605.14 184.99 595.39 178.34 585.44 172.04 575.42 166.35 565.29 161.35 555.11 156.71 544.98 152.75 534.85 149.49 524.77 146.51 514.78 144.15 504.85 142.38 495 140.7 485.23 139.46 475.53 138.62 465.91 137.63 456.36 136.86 446.85 136.28 437.41 135.35 428 134.49 418.63 133.68 409.3 132.45 399.98 131.26 390.69 130.18 381.45 128.76 372.2 127.6 363.21 126.76 354.49 125.86 345.76 125.46 337.31 125.63 329.15 126 320.98 127.08 313.11 128.9 305.56 131.09 298.02 134.07 290.79 137.81 283.91 141.96 277.03 146.82 270.48 152.34 264.28 158.15 258.07 164.5 252.18 171.3 246.63 178.21 241.03 185.44 235.72 192.9 230.7 200.3 225.57 207.83 220.68 215.44 216.01 222.85 211.15 230.3 206.46 237.77 201.92 244.98 197.12 252.21 192.4 259.48 187.77 266.5 182.84 273.6 177.95 280.79 173.11 287.79 167.97 294.95 162.89 302.28 157.89 309.47 152.66 316.9 147.56 324.58 142.68 332.16 137.67 340.04 132.98 348.23 128.67 356.36 124.42 364.83 120.69 373.64 117.58 382.43 114.71 391.59 112.58 401.13 111.27" stroke-dasharray="0 0" transform="rotate(0.9473684210526315, 400, 400)" opacity="0.78"></path><path d="M409.22 125.27C418.43 124.37 427.78 124.32 437.24 125.1 446.72 126.27 456.32 128.25 466.01 130.98 475.71 134.05 485.48 137.79 495.26 142.15 505.01 146.72 514.72 151.81 524.3 157.33 533.76 162.94 543.01 168.89 551.91 175.12 560.55 181.31 568.71 187.7 576.26 194.24 583.38 200.65 589.73 207.17 595.2 213.78 600.09 220.2 604 226.69 606.86 233.25 609.14 239.6 610.42 246.04 610.73 252.55 610.69 258.88 609.92 265.33 608.59 271.89 607.42 278.31 606.11 284.88 604.92 291.62 604.54 298.25 604.75 305.09 605.78 312.13 608.18 319.1 611.69 326.32 616.37 333.79 622.51 341.2 629.71 348.89 637.77 356.86 646.71 364.79 655.93 373.02 664.99 381.54 673.81 390.05 681.63 398.87 687.98 407.98 692.9 417.1 695.62 426.31 696.05 435.6 694.64 444.9 691.02 454.27 685.41 463.68 678.43 473.1 670.01 482.56 660.56 492.02 650.66 501.47 640.42 510.9 630.19 520.26 620.44 529.58 611.19 538.78 602.65 547.8 595.11 556.72 588.44 565.39 582.62 573.75 577.87 581.91 573.85 589.66 570.4 596.92 567.76 603.89 565.41 610.28 563.18 616 560.38 623.64 553.53 634.39 548.88 637.37 543.42 638.95 528.91 638 519.91 635.87 513.53 634.33 506.58 632.48 499.14 630.43 491.58 628.8 483.58 627.21 475.22 625.8 466.79 625.12 458.05 624.82 449.04 624.95 440.01 626 430.75 627.56 421.28 629.62 411.81 632.55 402.37 635.78 392.99 639.18 383.6 643.12 374.26 646.94 364.97 650.52 355.66 654.2 346.4 657.35 337.18 659.84 327.93 662.06 318.72 663.42 309.57 663.85 300.39 663.77 291.26 662.67 282.22 660.56 273.18 657.86 264.26 654.16 255.5 649.53 246.8 644.36 238.32 638.36 230.12 631.63 222.09 624.48 214.4 616.73 207.15 608.49 200.16 599.99 193.66 591.11 187.73 581.96 182.14 572.7 177.15 563.25 172.81 553.69 168.79 544.12 165.41 534.49 162.66 524.87 160.14 515.28 158.17 505.72 156.72 496.21 155.31 486.76 154.29 477.35 153.59 468.03 152.72 458.75 152.03 449.54 151.48 440.39 150.57 431.28 149.7 422.23 148.87 413.25 147.62 404.29 146.4 395.38 145.26 386.56 143.78 377.73 142.54 369.18 141.6 360.92 140.57 352.65 140 344.66 139.97 336.98 140.1 329.28 140.9 321.89 142.39 314.8 144.22 307.7 146.8 300.91 150.12 294.44 153.83 287.95 158.25 281.77 163.32 275.91 168.7 269.99 174.65 264.38 181.07 259.05 187.66 253.63 194.62 248.48 201.86 243.56 209.1 238.51 216.53 233.66 224.09 229 231.52 224.14 239.03 219.41 246.58 214.8 253.93 209.94 261.31 205.16 268.72 200.45 275.91 195.46 283.17 190.53 290.48 185.65 297.62 180.51 304.86 175.44 312.24 170.48 319.47 165.32 326.89 160.33 334.51 155.55 342.03 150.69 349.79 146.15 357.81 141.99 365.78 137.92 374.03 134.34 382.6 131.35 391.13 128.61 400 126.56 409.21 125.28" stroke-dasharray="0 0" transform="rotate(1.894736842105263, 400, 400)" opacity="0.18"></path><path d="M416.05 139.28C424.88 138.39 433.79 138.29 442.75 138.97 451.71 140.01 460.72 141.81 469.74 144.31 478.74 147.13 487.71 150.6 496.59 154.66 505.41 158.94 514.08 163.72 522.52 168.93 530.81 174.26 538.77 179.93 546.3 185.9 553.56 191.86 560.28 198.05 566.36 204.42 572.04 210.7 576.98 217.11 581.09 223.62 584.75 229.98 587.55 236.44 589.47 242.96 591 249.32 591.74 255.76 591.75 262.27 591.65 268.62 591.06 275.07 590.16 281.62 589.58 288.03 589.04 294.57 588.76 301.25 589.33 307.82 590.51 314.56 592.47 321.48 595.66 328.33 599.82 335.38 604.95 342.64 611.3 349.85 618.48 357.3 626.3 364.98 634.79 372.64 643.41 380.55 651.79 388.71 659.9 396.87 667.07 405.29 672.91 413.98 677.5 422.67 680.13 431.42 680.75 440.22 679.76 449.01 676.79 457.85 672.02 466.7 665.98 475.54 658.56 484.39 650.09 493.18 641.09 501.96 631.6 510.66 621.93 519.25 612.51 527.77 603.36 536.13 594.67 544.27 586.75 552.28 579.48 560.02 572.9 567.39 567.25 574.58 562.24 581.34 557.8 587.6 552.49 596.3 543.94 610.15 539.98 615.1 531.34 620.48 513.82 621.02 506 619.14 500.48 617.86 494.43 616.33 487.89 614.67 481.25 613.41 474.16 612.22 466.65 611.18 459.09 610.79 451.16 610.73 442.9 611.03 434.62 612.14 426.03 613.67 417.18 615.61 408.32 618.31 399.41 621.25 390.49 624.32 381.57 627.88 372.63 631.34 363.7 634.58 354.77 637.95 345.84 640.87 336.94 643.23 328.04 645.41 319.17 646.84 310.35 647.48 301.56 647.71 292.83 647.05 284.21 645.51 275.65 643.46 267.24 640.52 259.02 636.73 250.92 632.46 243.08 627.4 235.55 621.64 228.22 615.49 221.27 608.73 214.77 601.46 208.54 593.92 202.8 585.97 197.63 577.69 192.76 569.26 188.46 560.59 184.77 551.76 181.35 542.87 178.51 533.87 176.23 524.82 174.13 515.77 172.5 506.7 171.33 497.65 170.14 488.62 169.28 479.63 168.69 470.7 167.89 461.79 167.24 452.94 166.69 444.17 165.79 435.42 164.91 426.74 164.05 418.14 162.77 409.56 161.52 401.05 160.33 392.63 158.82 384.22 157.52 376.09 156.48 368.25 155.35 360.4 154.65 352.84 154.43 345.58 154.34 338.3 154.87 331.3 156.04 324.61 157.52 317.89 159.71 311.46 162.59 305.32 165.84 299.15 169.78 293.25 174.35 287.63 179.25 281.95 184.72 276.52 190.69 271.34 196.87 266.06 203.45 261 210.36 256.14 217.33 251.13 224.55 246.29 231.94 241.6 239.27 236.71 246.72 231.94 254.25 227.26 261.64 222.36 269.09 217.52 276.57 212.75 283.89 207.74 291.26 202.78 298.68 197.9 305.94 192.79 313.28 187.77 320.71 182.88 328.02 177.83 335.46 172.95 343.04 168.32 350.54 163.63 358.23 159.26 366.12 155.27 373.96 151.38 382.03 147.96 390.34 145.11 398.64 142.49 407.2 140.53 416.04 139.29" stroke-dasharray="0 0" transform="rotate(2.8421052631578947, 400, 400)" opacity="0.45"></path><path d="M420.68 153.29C429.08 152.41 437.48 152.27 445.85 152.85 454.21 153.76 462.53 155.38 470.76 157.66 478.97 160.23 487.05 163.42 494.95 167.17 502.76 171.13 510.34 175.59 517.6 180.48 524.7 185.48 531.41 190.85 537.64 196.52 543.63 202.21 549.05 208.15 553.85 214.28 558.33 220.36 562.12 226.6 565.18 232.96 567.93 239.21 569.96 245.57 571.29 252 572.41 258.31 572.95 264.7 572.98 271.16 573.07 277.48 572.89 283.9 572.58 290.4 572.7 296.78 573 303.28 573.62 309.88 575.08 316.39 577.14 323.04 579.9 329.83 583.74 336.55 588.39 343.44 593.83 350.5 600.25 357.52 607.31 364.73 614.81 372.14 622.81 379.52 630.81 387.12 638.52 394.92 645.94 402.72 652.49 410.74 657.83 418.97 662.1 427.21 664.64 435.47 665.4 443.74 664.79 452.01 662.4 460.27 658.4 468.51 653.24 476.73 646.79 484.9 639.29 492.99 631.22 501.04 622.56 508.98 613.58 516.76 604.66 524.46 595.81 531.96 587.21 539.2 579.14 546.32 571.53 553.13 564.46 559.56 558.12 565.81 552.33 571.64 547.05 576.97 540.36 584.35 529.36 595.84 524.48 599.82 515.03 604.02 498.18 604.17 491.11 602.6 486.19 601.59 480.8 600.4 474.95 599.11 469.04 598.21 462.7 597.37 455.94 596.66 449.14 596.55 441.95 596.7 434.41 597.14 426.84 598.29 418.94 599.78 410.73 601.6 402.51 604.08 394.2 606.75 385.82 609.51 377.45 612.7 369.03 615.81 360.58 618.72 352.15 621.78 343.71 624.46 335.28 626.66 326.88 628.74 318.51 630.2 310.21 630.97 301.96 631.43 293.8 631.13 285.78 630.04 277.85 628.55 270.1 626.27 262.58 623.22 255.21 619.75 248.12 615.56 241.37 610.71 234.83 605.5 228.68 599.7 222.98 593.38 217.54 586.8 212.58 579.79 208.15 572.41 203.99 564.88 200.36 557.05 197.28 549.02 194.42 540.9 192.06 532.62 190.21 524.25 188.46 515.84 187.12 507.37 186.16 498.88 185.15 490.39 184.4 481.91 183.88 473.45 183.13 465.01 182.48 456.61 181.92 448.27 181 439.95 180.1 431.68 179.2 423.5 177.91 415.33 176.63 407.23 175.41 399.23 173.87 391.23 172.53 383.51 171.43 376.07 170.22 368.62 169.4 361.45 169.01 354.55 168.74 347.64 169.02 341 169.88 334.63 171.02 328.23 172.81 322.09 175.25 316.22 178.03 310.3 181.47 304.62 185.52 299.18 189.89 293.67 194.83 288.38 200.28 283.3 205.96 278.11 212.07 273.1 218.54 268.26 225.14 263.27 232.01 258.42 239.1 253.69 246.21 248.78 253.47 243.97 260.84 239.24 268.15 234.31 275.54 229.44 282.99 224.64 290.33 219.63 297.72 214.69 305.15 209.84 312.47 204.8 319.85 199.87 327.29 195.08 334.64 190.17 342.07 185.45 349.61 180.98 357.08 176.48 364.68 172.3 372.42 168.5 380.11 164.8 387.98 161.56 396.02 158.85 404.05 156.37 412.26 154.5 420.67 153.29" stroke-dasharray="0 0" transform="rotate(3.789473684210526, 400, 400)" opacity="0.84"></path><path d="M422.48 167.3C430.39 166.44 438.22 166.26 445.93 166.74 453.63 167.53 461.2 168.97 468.6 171.02 475.97 173.35 483.13 176.26 490.04 179.69 496.86 183.33 503.37 187.45 509.51 191.98 515.52 196.65 521.09 201.67 526.18 207 531.07 212.39 535.43 218.02 539.21 223.87 542.76 229.7 545.71 235.71 548.06 241.85 550.22 247.92 551.81 254.11 552.88 260.39 553.9 266.58 554.51 272.86 554.81 279.21 555.3 285.46 555.68 291.79 556.06 298.19 556.93 304.5 558.05 310.91 559.53 317.4 561.79 323.82 564.6 330.34 568.02 336.98 572.35 343.57 577.34 350.28 582.94 357.13 589.33 363.94 596.16 370.91 603.28 378.03 610.75 385.13 618.14 392.39 625.19 399.82 631.94 407.25 637.88 414.85 642.76 422.61 646.7 430.37 649.13 438.12 650.02 445.83 649.71 453.53 647.86 461.19 644.55 468.78 640.22 476.35 634.68 483.83 628.14 491.18 621 498.5 613.23 505.65 605.02 512.61 596.74 519.5 588.36 526.15 580.06 532.52 572.09 538.78 564.4 544.7 557.07 550.25 550.31 555.64 543.96 560.61 538.04 565.12 530.23 571.33 516.92 580.83 511.04 584.04 500.28 587.4 483.03 587.49 476.33 586.27 469.26 585.12 453.16 582.92 444.13 582.26 437.95 582.38 431.41 582.71 424.52 583.28 417.61 584.45 410.37 585.89 402.81 587.59 395.25 589.86 387.57 592.26 379.81 594.73 372.06 597.58 364.25 600.34 356.4 602.94 348.58 605.69 340.75 608.11 332.94 610.13 325.17 612.09 317.44 613.51 309.81 614.36 302.24 614.98 294.79 614.94 287.5 614.23 280.33 613.19 273.36 611.46 266.64 609.05 260.08 606.29 253.82 602.87 247.9 598.85 242.2 594.51 236.88 589.6 231.99 584.2 227.34 578.55 223.14 572.46 219.42 565.99 215.93 559.36 212.91 552.41 210.38 545.22 208.01 537.93 206.08 530.44 204.57 522.81 203.12 515.12 202.01 507.34 201.21 499.49 200.32 491.63 199.65 483.73 199.15 475.83 198.41 467.94 197.75 460.05 197.15 452.21 196.21 444.37 195.27 436.57 194.33 428.84 193.02 421.12 191.73 413.46 190.48 405.89 188.94 398.32 187.57 391 186.43 383.94 185.16 376.87 184.25 370.06 183.73 363.5 183.28 356.92 183.34 350.59 183.93 344.5 184.74 338.38 186.16 332.48 188.17 326.82 190.48 321.11 193.41 315.6 196.92 310.3 200.74 304.93 205.1 299.74 209.97 294.72 215.09 289.6 220.65 284.62 226.59 279.79 232.69 274.82 239.1 269.96 245.77 265.2 252.51 260.29 259.44 255.45 266.52 250.7 273.6 245.77 280.79 240.9 288.06 236.12 295.28 231.15 302.56 226.27 309.89 221.48 317.15 216.55 324.46 211.74 331.82 207.09 339.11 202.36 346.47 197.82 353.88 193.54 361.25 189.26 368.7 185.29 376.23 181.69 383.74 178.19 391.34 175.14 399.05 172.58 406.75 170.24 414.56 168.46 422.47 167.3" stroke-dasharray="0 0" transform="rotate(4.7368421052631575, 400, 400)" opacity="0.97"></path><path d="M421.22 181.31C428.58 180.47 435.78 180.26 442.8 180.65 449.81 181.32 456.63 182.58 463.2 184.42 469.74 186.5 476.02 189.12 482 192.23 487.89 195.55 493.45 199.31 498.62 203.48 503.68 207.78 508.31 212.44 512.48 217.4 516.52 222.43 520.07 227.72 523.11 233.23 526.03 238.76 528.45 244.47 530.4 250.33 532.27 256.15 533.73 262.11 534.83 268.17 535.98 274.17 536.89 280.27 537.63 286.44 538.64 292.54 539.65 298.72 540.76 304.97 542.37 311.15 544.26 317.41 546.5 323.75 549.43 330.02 552.84 336.39 556.76 342.84 561.43 349.24 566.61 355.75 572.25 362.36 578.49 368.93 585.02 375.63 591.71 382.43 598.62 389.23 605.38 396.14 611.78 403.17 617.89 410.2 623.26 417.35 627.68 424.62 631.31 431.89 633.62 439.09 634.59 446.22 634.55 453.35 633.16 460.39 630.48 467.31 626.91 474.22 622.23 481 616.6 487.62 610.4 494.2 603.53 500.59 596.16 506.75 588.62 512.85 580.86 518.7 573.03 524.24 565.37 529.69 557.83 534.81 550.51 539.56 543.57 544.18 536.93 548.4 530.61 552.18 521.97 557.41 506.76 565.28 499.95 567.91 493.73 569.89 481.65 571.55 475.5 571.41 469.33 571.04 455.87 569.48 448.46 568.6 440.74 568.22 423.69 568.53 414.38 569.44 408.05 570.62 401.42 572.01 394.51 573.58 387.59 575.65 380.57 577.8 373.47 579.99 366.38 582.52 359.24 584.95 352.08 587.24 344.95 589.68 337.82 591.84 330.73 593.67 323.69 595.47 316.72 596.83 309.85 597.69 303.07 598.4 296.42 598.55 289.96 598.12 283.61 597.45 277.48 596.17 271.62 594.29 265.92 592.14 260.51 589.4 255.45 586.1 250.57 582.54 246.06 578.46 241.96 573.9 238.05 569.12 234.55 563.91 231.49 558.33 228.6 552.59 226.12 546.52 224.06 540.18 222.11 533.73 220.52 527.06 219.3 520.21 218.07 513.3 217.12 506.25 216.43 499.11 215.62 491.93 214.97 484.69 214.46 477.41 213.71 470.12 213.02 462.81 212.37 455.51 211.39 448.21 210.41 440.93 209.44 433.69 208.12 426.45 206.82 419.26 205.56 412.12 204.03 404.99 202.65 398.08 201.48 391.4 200.19 384.71 199.2 378.24 198.57 372 197.99 365.74 197.85 359.68 198.19 353.84 199.24 345.13 204.45 328.6 208.63 320.74 211.88 315.48 215.65 310.38 219.91 305.41 224.41 300.36 229.36 295.42 234.69 290.6 240.21 285.66 246.06 280.81 252.18 276.05 258.43 271.16 264.89 266.34 271.54 261.6 278.23 256.71 285.07 251.89 292.01 247.16 298.95 242.29 305.97 237.5 313.05 232.83 320.1 228.05 327.21 223.41 334.35 218.93 341.46 214.4 348.62 210.08 355.8 206.01 362.96 201.96 370.17 198.22 377.4 194.83 384.63 191.55 391.9 188.69 399.2 186.3 406.5 184.09 413.84 182.42 421.2 181.31" stroke-dasharray="0 0" transform="rotate(5.684210526315789, 400, 400)" opacity="0.78"></path><path d="M417.05 195.32C423.82 194.51 430.38 194.26 436.72 194.57 443.04 195.12 449.12 196.22 454.93 197.84 460.7 199.68 466.18 202.02 471.34 204.82 478.82 209.5 491.85 221.04 497.31 227.74 502.25 234.84 510.01 250.27 512.92 258.47 514.76 263.99 516.32 269.65 517.64 275.42 519.11 281.15 520.45 286.99 521.73 292.92 523.31 298.79 524.97 304.75 526.78 310.78 529.06 316.76 531.61 322.81 534.49 328.92 537.95 334.99 541.81 341.14 546.07 347.34 550.92 353.52 556.15 359.77 561.7 366.09 567.69 372.4 573.85 378.78 580.05 385.24 586.4 391.69 592.54 398.22 598.3 404.83 603.79 411.43 608.62 418.12 612.61 424.87 615.92 431.62 618.11 438.27 619.13 444.81 619.31 451.35 618.32 457.76 616.2 464.03 613.31 470.28 609.43 476.37 604.67 482.27 599.37 488.14 593.4 493.8 586.92 499.22 580.19 504.58 573.15 509.68 565.94 514.48 558.77 519.2 551.59 523.59 544.49 527.64 537.63 531.59 530.94 535.17 524.47 538.35 518.33 541.43 512.42 544.1 506.74 546.35 498.83 549.38 484.29 553.3 477.45 554.27 470.94 554.9 457.88 554.85 451.14 554.39 444.33 554.1 429.73 553.68 421.87 553.79 416.54 554.28 410.97 554.88 405.15 555.62 399.33 556.79 393.26 558.12 386.95 559.57 380.65 561.45 374.27 563.36 367.85 565.29 361.44 567.51 355 569.64 348.57 571.63 342.17 573.77 335.8 575.68 329.49 577.29 323.23 578.92 317.06 580.17 311.03 581.01 302.17 581.88 285.53 580.92 277.9 579.02 270.75 576.29 258.24 567.98 252.98 562.51 248.31 556.34 240.98 541.88 238.3 533.76 236.67 528.15 235.35 522.3 234.33 516.25 233.26 510.13 232.42 503.84 231.78 497.43 230.99 490.98 230.34 484.43 229.79 477.8 229 471.17 228.26 464.48 227.55 457.76 226.54 451.05 225.52 444.32 224.52 437.6 223.2 430.88 221.89 424.17 220.64 417.49 219.12 410.81 217.76 404.32 216.58 398.02 215.28 391.71 214.25 385.59 213.54 379.65 212.7 370.81 213.3 353.96 214.89 345.91 217.3 337.95 225 322.63 230.22 315.23 234.08 310.25 238.38 305.37 243.05 300.59 247.91 295.71 253.12 290.91 258.62 286.19 264.25 281.36 270.13 276.6 276.22 271.92 282.39 267.13 288.72 262.41 295.18 257.78 301.69 253.04 308.29 248.41 314.97 243.9 321.66 239.31 328.41 234.87 335.19 230.61 341.97 226.31 348.79 222.23 355.62 218.4 362.44 214.6 369.28 211.1 376.12 207.94 382.96 204.89 389.8 202.23 396.63 200 403.45 197.94 410.27 196.37 417.04 195.32" stroke-dasharray="0 0" transform="rotate(6.63157894736842, 400, 400)" opacity="0.23"></path><path d="M410.55 209.33C419.67 208.41 436.68 209.42 444.51 211.3 454.68 214.72 463.66 219.89 471.31 226.54 478.79 233.72 484.95 242.14 489.79 251.51 494.67 261.08 498.57 271.39 501.78 282.21 505.73 293.01 509.71 304.22 514.15 315.7 520.26 327.07 527.46 338.72 535.85 350.55 546.04 362.29 557.09 374.29 568.32 386.43 574.07 392.5 579.6 398.62 584.75 404.77 589.65 410.92 593.96 417.11 597.53 423.33 600.54 429.55 602.59 435.64 603.63 441.59 603.99 447.53 603.34 453.33 601.72 458.96 596.54 470.17 588.08 480.63 577.2 490.14 565.24 499.47 552.15 507.72 538.73 514.71 525.77 521.41 513.19 526.76 501.26 530.67 490.32 534.34 479.94 536.68 470 537.76 460.79 538.96 451.61 539.26 442.27 538.88 433.22 539.26 423.68 539.46 413.55 539.71 405.89 540.68 389.7 543.6 381.18 545.56 375.45 547.25 369.69 548.94 363.93 550.62 358.17 552.56 352.43 554.4 346.74 556.11 335.42 559.94 324.39 562.77 313.9 564.34 303.68 565.7 294.2 565.38 285.72 563.34 277.65 560.67 270.71 556.2 265.08 550.11 259.81 543.41 255.79 535.25 253.01 525.92 250.22 516.2 248.33 505.54 247.2 494.23 245.43 482.76 243.97 470.81 242.7 458.62 241.64 452.51 240.6 446.36 239.56 440.18 238.25 434 236.95 427.8 235.71 421.6 234.24 415.4 232.9 409.34 231.73 403.43 230.44 397.52 229.4 391.75 228.63 386.13 227.13 374.85 227.14 364.1 228.75 353.89 231.06 343.52 235.2 333.57 241.03 324.05 247.69 314.25 255.91 304.76 265.36 295.6 275.4 286.08 286.4 276.84 298.04 267.99 309.95 258.84 322.31 250.15 334.85 242.13 347.48 234.09 360.23 226.95 372.9 221.03 379.25 218.2 385.58 215.74 391.86 213.69 398.15 211.78 404.38 210.32 410.54 209.33" stroke-dasharray="0 0" transform="rotate(7.578947368421052, 400, 400)" opacity="0.82"></path><path d="M402.61 223.34C413.69 222.03 423.83 222.57 432.95 224.8 442 227.74 449.97 232.27 456.82 238.16 463.62 244.54 469.38 252.09 474.17 260.56 479.17 269.26 483.56 278.71 487.57 288.68 492.37 298.7 497.37 309.15 502.84 319.88 509.71 330.56 517.44 341.5 526.01 352.58 535.89 363.62 546.24 374.84 556.48 386.13 566.75 397.4 575.71 408.78 582.45 420.12 587.38 431.46 588.88 442.22 587.04 452.27 583.04 462.26 576.13 471.48 566.96 479.76 556.69 487.91 545.13 495.04 532.95 501.03 520.87 506.82 508.8 511.45 497.08 514.85 486.01 518.15 475.34 520.35 465.08 521.53 455.41 522.91 445.88 523.57 436.4 523.68 427.21 524.48 417.8 525.12 408.1 525.73 398.47 527.47 388.42 529.42 377.98 531.55 367.55 534.84 357.25 537.95 347.24 540.68 337.3 543.96 327.78 546.38 318.87 547.74 310.15 549.02 302.19 548.9 295.19 547.33 288.46 545.32 282.75 541.77 278.18 536.79 273.79 531.34 270.44 524.56 268.1 516.66 265.6 508.44 263.82 499.27 262.64 489.39 260.8 479.37 259.21 468.78 257.79 457.83 255.37 446.84 252.99 435.57 250.79 424.16 247.77 412.75 245.39 401.74 243.84 391.18 242.22 380.58 241.9 370.36 242.97 360.57 244.56 350.66 247.75 341.06 252.45 331.82 257.85 322.36 264.68 313.16 272.7 304.28 281.28 295.13 290.84 286.27 301.08 277.82 311.65 269.17 322.71 261.01 334.01 253.53 345.45 246.08 357.04 239.51 368.54 234.08 380.1 229.03 391.52 225.36 402.6 223.34" stroke-dasharray="0 0" transform="rotate(8.526315789473683, 400, 400)" opacity="0.10"></path><path d="M394.31 237.35C404.19 236.09 413.24 236.47 421.4 238.35 429.53 240.84 436.78 244.74 443.15 249.87 449.55 255.45 455.2 262.11 460.19 269.64 465.49 277.42 470.44 285.92 475.23 294.95 480.77 304.08 486.56 313.64 492.77 323.48 500.08 333.33 508.01 343.42 516.46 353.64 525.82 363.85 535.33 374.18 544.52 384.52 553.61 394.86 561.46 405.22 567.38 415.47 571.83 425.71 573.41 435.33 572.18 444.23 569.2 453.09 563.69 461.18 556.15 468.39 547.55 475.51 537.61 481.7 526.87 486.89 515.98 491.96 504.82 496.04 493.74 499.11 483.02 502.16 472.51 504.33 462.31 505.67 452.53 507.26 442.93 508.26 433.5 508.81 424.31 509.97 415.09 510.95 405.83 511.86 396.63 513.68 387.27 515.59 377.79 517.54 368.31 520.44 359.15 523.09 350.43 525.35 341.75 528.11 333.58 530.11 326.07 531.23 315.35 532.35 298.27 528.17 292.13 522.7 288.4 518.3 285.51 512.71 283.43 506.09 281.1 499.21 279.33 491.41 278.03 482.89 276.09 474.24 274.37 464.97 272.8 455.26 270.37 445.51 268.02 435.38 265.86 424.99 262.99 414.61 260.71 404.46 259.16 394.62 257.49 384.76 256.93 375.16 257.54 365.88 258.52 356.5 260.88 347.36 264.55 338.51 268.78 329.51 274.29 320.73 280.91 312.26 288.01 303.61 296.07 295.25 304.82 287.3 313.9 279.26 323.51 271.7 333.42 264.81 343.49 258.01 353.75 252.03 363.97 247.11 374.26 242.54 384.44 239.21 394.31 237.35" stroke-dasharray="0 0" transform="rotate(9.473684210526315, 400, 400)" opacity="0.19"></path><path d="M386.79 251.36C395.52 250.17 403.59 250.4 410.98 251.96 418.36 254.01 425.09 257.31 431.18 261.71 437.37 266.5 443.06 272.27 448.35 278.84 453.95 285.66 459.4 293.16 464.83 301.17 470.89 309.31 477.19 317.88 483.8 326.73 491.22 335.62 499.04 344.75 507.1 353.99 515.74 363.25 524.33 372.6 532.44 381.92 540.37 391.26 547.17 400.56 552.3 409.7 556.28 418.85 557.88 427.37 557.15 435.2 555.04 443.01 550.78 450.09 544.73 456.38 537.74 462.61 529.43 468.03 520.25 472.58 510.76 477.09 500.82 480.78 490.73 483.63 480.78 486.53 470.85 488.72 461.12 490.25 451.63 492.03 442.3 493.34 433.17 494.26 424.22 495.7 415.35 496.96 406.59 498.07 397.9 499.93 389.23 501.76 380.63 503.53 372.04 506.05 363.91 508.28 356.32 510.12 348.74 512.38 341.73 513.99 335.39 514.85 326.3 515.78 311.94 512.44 306.73 507.98 303.45 504.43 300.84 499.84 298.87 494.33 296.6 488.63 294.77 482.07 293.31 474.8 291.27 467.42 289.42 459.41 287.74 450.9 285.33 442.36 283.02 433.37 280.94 424.03 278.25 414.7 276.1 405.47 274.59 396.43 272.93 387.38 272.21 378.48 272.47 369.8 272.97 361.07 274.62 352.51 277.4 344.18 280.58 335.76 284.89 327.54 290.19 319.6 295.88 311.57 302.46 303.82 309.72 296.49 317.27 289.13 325.38 282.25 333.83 276.01 342.44 269.89 351.29 264.53 360.19 260.13 369.14 256.04 378.07 253.05 386.79 251.36" stroke-dasharray="0 0" transform="rotate(10.421052631578949, 400, 400)" opacity="0.55"></path><path d="M381.08 265.37C388.72 264.26 395.93 264.37 402.66 265.62 409.4 267.27 415.72 270 421.63 273.69 427.65 277.71 433.4 282.6 438.92 288.22 444.73 294.06 450.5 300.53 456.3 307.49 462.59 314.58 469.07 322.08 475.74 329.86 482.96 337.7 490.38 345.77 497.83 353.95 505.62 362.16 513.19 370.46 520.22 378.71 527.03 386.99 532.84 395.21 537.23 403.26 540.73 411.3 542.3 418.78 541.97 425.62 540.58 432.45 537.4 438.64 532.69 444.13 527.18 449.6 520.46 454.37 512.86 458.43 504.9 462.49 496.37 465.88 487.54 468.6 478.69 471.4 469.72 473.64 460.8 475.34 452 477.28 443.28 478.84 434.74 480.04 426.31 481.68 418 483.12 409.88 484.38 401.81 486.21 393.86 487.94 386.12 489.52 378.38 491.69 371.18 493.53 364.55 494.98 354.9 497.41 338.66 499.31 332.17 498.38 326.29 496.49 317.45 488.06 314.25 481.61 311.97 476.9 310.04 471.43 308.42 465.29 306.29 459.07 304.35 452.23 302.58 444.87 300.22 437.48 298 429.61 296.02 421.35 293.53 413.08 291.54 404.82 290.12 396.65 288.53 388.48 287.72 380.38 287.74 372.43 287.88 364.45 288.97 356.58 291 348.92 293.3 341.2 296.56 333.67 300.68 326.4 305.09 319.09 310.3 312.07 316.16 305.45 322.24 298.84 328.88 292.69 335.9 287.15 343.06 281.73 350.5 277 358.09 273.13 365.72 269.53 373.43 266.89 381.08 265.37" stroke-dasharray="0 0" transform="rotate(11.368421052631579, 400, 400)" opacity="0.85"></path><path d="M377.94 279.38C384.58 278.36 390.98 278.37 397.1 279.33 403.25 280.62 409.18 282.82 414.88 285.85 420.68 289.13 426.37 293.18 431.95 297.85 437.76 302.73 443.6 308.17 449.46 314.05 455.67 320.06 461.99 326.46 468.38 333.12 475.12 339.85 481.89 346.8 488.55 353.86 495.37 360.96 501.89 368.14 507.85 375.3 513.59 382.47 518.46 389.59 522.16 396.56 525.19 403.53 526.67 410.01 526.64 415.94 525.82 421.86 523.56 427.24 520.02 432.04 515.85 436.84 510.61 441.07 504.55 444.73 498.13 448.41 491.1 451.56 483.69 454.17 476.17 456.89 468.42 459.16 460.61 460.99 452.82 463.04 445.02 464.75 437.34 466.16 429.7 467.91 422.18 469.44 414.85 470.77 407.54 472.52 400.4 474.12 393.5 475.51 386.61 477.34 380.25 478.83 374.46 479.95 366.01 481.8 351.88 483.01 346.19 482.1 340.91 480.47 332.62 473.49 329.39 468.16 326.06 462.03 320.12 446.54 317.32 437.39 315.04 431.09 312.94 424.32 311.09 417.13 308.84 409.95 307.04 402.69 305.74 395.47 304.27 388.24 303.46 381.03 303.32 373.91 303.21 366.79 303.89 359.75 305.33 352.87 306.93 345.98 309.33 339.24 312.45 332.76 315.76 326.28 319.77 320.06 324.37 314.23 329.13 308.44 334.41 303.07 340.11 298.25 345.89 293.55 352.02 289.47 358.37 286.13 364.75 283.02 371.31 280.72 377.94 279.38" stroke-dasharray="0 0" transform="rotate(12.31578947368421, 400, 400)" opacity="0.41"></path><path d="M377.83 293.39C389.2 291.8 400.33 293.6 410.98 298.2 421.97 303.6 433.03 311.47 444 321.01 455.81 330.98 467.81 342.27 479.17 354.07 490.73 366.02 500.58 378.28 507.08 390.12 511.68 401.95 511.35 412.16 506.74 420.51 500.27 428.89 490.48 435.58 478.77 440.49 466.49 445.81 453.2 449.83 439.98 452.61 426.8 456.39 413.84 459.44 401.77 461.5 389.71 464.83 379.54 466.63 371.34 466.8 362.95 467.41 356.28 465.78 351.31 461.92 345.7 457.96 341.24 451.6 337.87 443.12 333.21 434.51 329.19 423.91 326.17 411.69 321.91 399.47 319.53 386.85 319.16 374.5 318.73 362.14 320.89 350.03 325.45 338.82 330.42 327.68 337.69 317.59 346.68 309.34 355.88 301.54 366.45 295.94 377.83 293.39" stroke-dasharray="0 0" transform="rotate(13.26315789473684, 400, 400)" opacity="0.97"></path><path d="M380.74 307.4C390.29 305.97 400.04 307.25 409.68 310.76 419.54 314.86 429.61 320.98 439.53 328.5 449.89 336.36 460.17 345.38 469.61 354.93 478.99 364.58 486.85 374.6 492 384.38 495.88 394.15 496.01 402.72 492.88 409.88 488.47 417.1 481.34 423.05 472.45 427.67 463.03 432.6 452.49 436.52 441.72 439.37 430.89 442.92 420.05 445.72 409.8 447.49 399.55 450.13 390.78 451.38 383.57 451.23 376.17 451.45 370.08 449.89 365.29 446.58 359.97 443.28 355.56 438.07 352.1 431.15 347.71 424.17 343.97 415.5 341.24 405.41 337.61 395.32 335.59 384.81 335.23 374.47 334.68 364.16 336.16 354.04 339.56 344.71 343.11 335.5 348.56 327.2 355.58 320.46 362.69 314.09 371.18 309.52 380.74 307.4" stroke-dasharray="0 0" transform="rotate(14.210526315789474, 400, 400)" opacity="0.86"></path><path d="M386.28 321.41C394.02 320.18 402.18 321.01 410.4 323.57 418.74 326.5 427.28 331.01 435.61 336.66 444.12 342.53 452.38 349.38 459.78 356.74 467.03 364.17 473.01 371.99 476.93 379.76 480.05 387.52 480.46 394.48 478.48 400.44 475.71 406.46 470.85 411.6 464.51 415.76 457.78 420.14 449.97 423.74 441.72 426.44 433.39 429.59 424.81 432.02 416.49 433.49 408.16 435.49 400.83 436.28 394.6 435.91 385.51 435.08 371.35 426.7 365.93 419.1 361.98 413.58 358.68 406.73 356.32 398.74 353.36 390.75 351.74 382.4 351.46 374.18 350.96 365.99 352.02 357.97 354.55 350.61 357.08 343.37 361.13 336.87 366.5 331.63 371.88 326.66 378.53 323.09 386.28 321.41" stroke-dasharray="0 0" transform="rotate(15.157894736842104, 400, 400)" opacity="0.63"></path><path d="M393.7 335.42C405.53 333.71 419.12 337.82 431.79 345.57 444.58 353.83 455.91 365 461.85 376.59 466.06 388.18 462.92 397.95 454.88 404.8 445.86 412.18 433.53 417.53 420.92 419.48 408.31 422.61 397.71 421.58 390.05 416.98 381.55 412.6 374.81 404.03 371.4 392.16 366.58 380.29 366.31 367.51 370.13 356.68 373.74 346.18 381.86 338.16 393.7 335.42" stroke-dasharray="0 0" transform="rotate(16.105263157894736, 400, 400)" opacity="0.78"></path><path d="M401.97 349.43C410.02 348.14 419.22 350.53 427.6 355.31 435.93 360.32 443.1 367.39 446.78 375.1 449.71 382.8 448.2 389.69 443.57 394.79 438.5 400.13 430.93 404.06 422.49 405.47 414.05 407.39 406.35 406.38 400.4 403.04 394.09 399.83 389.02 393.98 386.47 386.14 383.27 378.3 383.24 370 385.93 363.07 388.43 356.32 393.93 351.19 401.97 349.43" stroke-dasharray="0 0" transform="rotate(17.052631578947366, 400, 400)" opacity="0.79"></path></g></svg>