<svg xmlns="http://www.w3.org/2000/svg" version="1.1" xmlns:xlink="http://www.w3.org/1999/xlink" xmlns:svgjs="http://svgjs.dev/svgjs" viewBox="0 0 2400 800" opacity="1"><defs><linearGradient x1="50%" y1="0%" x2="50%" y2="100%" id="oooscillate-grad"><stop stop-color="#059669" stop-opacity="1" offset="0%"></stop><stop stop-color="#0d9488" stop-opacity="1" offset="100%"></stop></linearGradient></defs><g stroke-width="2" stroke="url(#oooscillate-grad)" fill="none" stroke-linecap="round"><path d="M 0 609 Q 600 -100 1200 400 Q 1800 900 2400 609" opacity="0.15"></path><path d="M 0 580 Q 600 -100 1200 400 Q 1800 900 2400 580" opacity="0.60"></path><path d="M 0 551 Q 600 -100 1200 400 Q 1800 900 2400 551" opacity="0.66"></path><path d="M 0 522 Q 600 -100 1200 400 Q 1800 900 2400 522" opacity="0.62"></path><path d="M 0 493 Q 600 -100 1200 400 Q 1800 900 2400 493" opacity="0.36"></path><path d="M 0 464 Q 600 -100 1200 400 Q 1800 900 2400 464" opacity="0.47"></path><path d="M 0 435 Q 600 -100 1200 400 Q 1800 900 2400 435" opacity="0.44"></path><path d="M 0 406 Q 600 -100 1200 400 Q 1800 900 2400 406" opacity="0.66"></path><path d="M 0 377 Q 600 -100 1200 400 Q 1800 900 2400 377" opacity="0.93"></path><path d="M 0 348 Q 600 -100 1200 400 Q 1800 900 2400 348" opacity="0.99"></path><path d="M 0 319 Q 600 -100 1200 400 Q 1800 900 2400 319" opacity="0.81"></path><path d="M 0 290 Q 600 -100 1200 400 Q 1800 900 2400 290" opacity="0.65"></path><path d="M 0 261 Q 600 -100 1200 400 Q 1800 900 2400 261" opacity="0.74"></path><path d="M 0 232 Q 600 -100 1200 400 Q 1800 900 2400 232" opacity="0.30"></path><path d="M 0 203 Q 600 -100 1200 400 Q 1800 900 2400 203" opacity="0.45"></path><path d="M 0 174 Q 600 -100 1200 400 Q 1800 900 2400 174" opacity="0.16"></path><path d="M 0 145 Q 600 -100 1200 400 Q 1800 900 2400 145" opacity="0.07"></path><path d="M 0 116 Q 600 -100 1200 400 Q 1800 900 2400 116" opacity="0.61"></path><path d="M 0 87 Q 600 -100 1200 400 Q 1800 900 2400 87" opacity="0.88"></path><path d="M 0 58 Q 600 -100 1200 400 Q 1800 900 2400 58" opacity="0.62"></path></g></svg>